<svg id="Capa_1" data-name="Capa 1" xmlns="http://www.w3.org/2000/svg" viewBox="0 0 100 100"><defs><style>.cls-1{fill:#fdc83c;}.cls-2{fill:#747474;}.cls-3{fill:#79b15c;}.cls-4{fill:#737373;}.cls-5{fill:#78b05a;}</style></defs><path class="cls-1" d="M95.07,18.07c0,3,0,6.05,0,9.08a2.52,2.52,0,0,1-2.59,2.67q-9.24,0-18.48,0c-1.48,0-2.43-1.12-2.44-2.86,0-4.34,0-8.68,0-13,0-1.62,0-3.24,0-4.85a2.57,2.57,0,0,1,2.74-2.76q9-.06,18,0c1.91,0,2.73.93,2.74,2.83,0,3,0,6,0,8.94Z"/><path class="cls-1" d="M28.53,50.25q0,4.38,0,8.77c0,2-.94,2.95-2.95,2.95H8.19C6,62,4.93,61,4.92,58.78q0-8.46,0-16.93c0-2.45,1.06-3.49,3.5-3.49H25.36c2.13,0,3.13,1,3.15,3.12,0,2.92,0,5.85,0,8.77Z"/><path class="cls-2" d="M95.06,50.26c0,2.93,0,5.85,0,8.78A2.58,2.58,0,0,1,92.2,62q-8.85,0-17.7,0a2.56,2.56,0,0,1-2.88-2.89q0-8.78,0-17.55c0-2.2.93-3.1,3.16-3.11h17.1c2.26,0,3.17,1,3.18,3.25Z"/><path class="cls-3" d="M83.35,70.14c2.93,0,5.85,0,8.78,0,2,0,2.92.9,2.93,2.83q0,8.93,0,17.85c0,1.94-1.11,2.86-3.44,2.88-5,0-10.08,0-15.12,0-3.46,0-5.12.19-5-4.87s0-10.19,0-15.28c0-2.63.79-3.41,3.44-3.42h8.32Z"/><path class="cls-4" d="M16.8,70.14c2.93,0,5.85,0,8.78,0,2,0,2.93.92,2.93,3q0,8.77,0,17.54a2.7,2.7,0,0,1-3,3q-8.84,0-17.69,0a2.59,2.59,0,0,1-2.77-2.74C5,85,5,79.05,5.07,73.1c0-2.17.93-2.95,3.11-3Z"/><path class="cls-2" d="M38.44,18.07c0-3,0-6,0-8.93,0-1.9.88-2.81,2.74-2.81q8.93,0,17.85,0a2.48,2.48,0,0,1,2.78,2.8q0,8.85,0,17.7c0,2.07-.89,3-2.93,3H41.2c-1.86,0-2.75-.9-2.76-2.79,0-3,0-5.95,0-8.92Z"/><path class="cls-5" d="M61.81,50.14c0,3,0,6,0,9.07A2.44,2.44,0,0,1,59.11,62q-9,0-18,0a2.44,2.44,0,0,1-2.68-2.76q0-8.93,0-17.84c0-2,1-2.94,3-3,5.85,0,11.69,0,17.54,0a2.54,2.54,0,0,1,2.79,2.83C61.82,44.19,61.81,47.16,61.81,50.14Z"/><path class="cls-4" d="M7,29.61a2.36,2.36,0,0,1-1.91-2.53q0-9,0-17.94A2.31,2.31,0,0,1,6.69,6.57c.3.37.72.29,1.12.29H25.46c.44,0,.93.11,1.24-.35a2.26,2.26,0,0,1,1.81,2.44q0,9.12,0,18.23a2.32,2.32,0,0,1-1.8,2.45c-.37-.51-.92-.35-1.4-.35H8.36C7.88,29.27,7.34,29.11,7,29.61Z"/><path class="cls-5" d="M61.53,92a.18.18,0,0,1-.09.21,8.16,8.16,0,0,1-4.48.93c-5-.05-9.89,0-14.84,0-2.55,0-3.31-.67-3.32-3.18,0-5.65,0-11.3,0-17a1.48,1.48,0,0,1,.81-1.44,5.23,5.23,0,0,1,3-.84c5.29,0,10.59,0,15.89,0,2.42,0,3,.63,3,3.13Z"/><path class="cls-3" d="M61.53,92l0-18.16c0-2.5-.63-3.13-3-3.13-5.3,0-10.6,0-15.89,0a5.23,5.23,0,0,0-3,.84A1.48,1.48,0,0,0,38.78,73c0,5.66,0,11.31,0,17,0,2.51.77,3.17,3.32,3.18,5,0,9.89,0,14.84,0a8.16,8.16,0,0,0,4.48-.93A2.18,2.18,0,0,1,59,93.68c-6,0-12,0-18,0A2.44,2.44,0,0,1,38.4,91q0-9,0-18c0-2,.94-2.84,2.92-2.85q8.86,0,17.71,0c1.83,0,2.77.81,2.78,2.45q0,9.23,0,18.46C61.8,91.41,61.84,91.78,61.53,92Z"/><path class="cls-2" d="M26.7,6.5c-.31.46-.8.35-1.24.35H7.81c-.4,0-.82.08-1.12-.29a1.56,1.56,0,0,1,1-.24H26A3.11,3.11,0,0,1,26.7,6.5Z"/><path class="cls-2" d="M7,29.61c.37-.5.91-.34,1.39-.34H25.3c.48,0,1-.16,1.4.35a2.6,2.6,0,0,1-1.48.16H8.44A2.4,2.4,0,0,1,7,29.61Z"/></svg>